<svg xmlns="http://www.w3.org/2000/svg" xmlns:xlink="http://www.w3.org/1999/xlink" width="100" height="100" viewBox="0 0 100 100" fill="none">
<path d="M17 15.7357C17 13.9786 17.8355 12.2214 18.9496 10.7571C20.0636 9.29286 22.0132 9 23.6843 9L63.7898 9L83.8426 29.5L83.8426 84.2643C83.8426 86.0214 83.007 87.7785 81.893 88.95C80.7789 90.1214 78.8294 91 77.1583 91L23.6843 91C20.0636 91 17 88.0714 17 84.2643L17 15.7357Z"   fill="#FF8D1A" >
</path>
<path d="M84 29.8306L70.6839 29.8306C67.0775 29.8306 64.0258 26.6032 64.0258 22.7891L64.0258 9L84 29.8306Z"   fill="#FFC300" >
</path>
<g >
<path     fill="#FFFFFF"  d="M37.88 43.476L26.264 43.476C25.328 43.476 24.824 43.98 24.824 44.916L24.824 55.452C24.824 56.532 25.616 57.06 26.456 57.06L37.88 57.06C38.816 57.06 39.32 56.556 39.32 55.62L39.32 50.412C39.32 49.956 39.056 49.692 38.6 49.692L34.136 49.692C33.536 49.692 33.344 50.1 33.704 50.58L34.592 51.732C34.736 51.924 34.808 52.092 34.808 52.332L34.808 54.276C34.808 54.588 34.64 54.756 34.328 54.756L29.792 54.756C29.48 54.756 29.312 54.588 29.312 54.276L29.312 46.26C29.312 45.948 29.48 45.78 29.792 45.78L34.328 45.78C34.64 45.78 34.808 45.948 34.808 46.26L34.808 46.668C34.808 47.124 35.072 47.388 35.528 47.388L38.6 47.388C39.056 47.388 39.32 47.124 39.32 46.668L39.32 44.916C39.32 43.98 38.816 43.476 37.88 43.476ZM55.832 43.476L43.4 43.476C42.824 43.476 42.632 43.836 42.944 44.34L43.136 44.652C43.256 44.868 43.304 45.012 43.304 45.228L43.304 56.34C43.304 56.796 43.568 57.06 44.024 57.06L47.168 57.06C47.624 57.06 47.888 56.796 47.888 56.34L47.888 52.476C47.888 52.164 47.984 51.996 48.128 51.996C48.296 51.996 48.44 52.068 48.608 52.236L53.384 56.7C53.648 56.964 53.912 57.06 54.272 57.06L57.512 57.06C58.16 57.06 58.352 56.628 57.848 56.172L53.912 52.596C53.576 52.284 53.72 51.996 54.152 51.996L55.784 51.996C56.864 51.996 57.416 51.324 57.416 50.388L57.416 45.06C57.416 44.028 56.864 43.476 55.832 43.476ZM52.904 46.26L52.904 49.212C52.904 49.524 52.736 49.692 52.424 49.692L48.368 49.692C48.056 49.692 47.888 49.524 47.888 49.212L47.888 46.26C47.888 45.948 48.056 45.78 48.368 45.78L52.424 45.78C52.736 45.78 52.904 45.948 52.904 46.26ZM61.208 45.06L61.208 55.452C61.208 56.532 62 57.06 62.84 57.06L74.048 57.06C75.08 57.06 75.632 56.484 75.632 55.476L75.632 45.084C75.632 44.1 74.816 43.476 74.072 43.476L62.792 43.476C61.76 43.476 61.208 44.052 61.208 45.06ZM71.12 46.26L71.12 54.276C71.12 54.588 70.952 54.756 70.64 54.756L66.176 54.756C65.864 54.756 65.696 54.588 65.696 54.276L65.696 46.26C65.696 45.948 65.864 45.78 66.176 45.78L70.64 45.78C70.952 45.78 71.12 45.948 71.12 46.26Z">
</path>
</g>
</svg>
