<svg xmlns="http://www.w3.org/2000/svg" xmlns:xlink="http://www.w3.org/1999/xlink" width="100" height="100" viewBox="0 0 100 100" fill="none">
<path d="M17 15.7357C17 13.9786 17.8355 12.2214 18.9496 10.7571C20.0636 9.29286 22.0132 9 23.6843 9L63.7898 9L83.8426 29.5L83.8426 84.2643C83.8426 86.0214 83.007 87.7785 81.893 88.95C80.7789 90.1214 78.8294 91 77.1583 91L23.6843 91C20.0636 91 17 88.0714 17 84.2643L17 15.7357Z"   fill="#43CF7C" >
</path>
<path d="M84 29.8306L70.6839 29.8306C67.0775 29.8306 64.0259 26.6032 64.0259 22.7891L64.0259 9L84 29.8306Z"   fill="#8BFCB8" >
</path>
<g >
<path     fill="#FFFFFF"  d="M29.132 44.196L29.42 44.652C29.54 44.868 29.588 45.012 29.588 45.228L29.588 56.34C29.588 56.796 29.852 57.06 30.308 57.06L33.404 57.06C33.86 57.06 34.124 56.796 34.124 56.34L34.124 44.196C34.124 43.74 33.86 43.476 33.404 43.476L29.708 43.476C29.132 43.476 28.868 43.788 29.132 44.196ZM37.988 44.196L38.276 44.652C38.396 44.868 38.444 45.012 38.444 45.228L38.444 56.34C38.444 56.796 38.708 57.06 39.164 57.06L41.828 57.06C42.284 57.06 42.548 56.796 42.548 56.34L42.548 49.788C42.548 49.332 42.86 49.212 43.124 49.596L47.996 56.604C48.212 56.94 48.476 57.06 48.86 57.06L52.172 57.06C52.628 57.06 52.892 56.796 52.892 56.34L52.892 44.196C52.892 43.74 52.628 43.476 52.172 43.476L49.652 43.476C49.196 43.476 48.932 43.74 48.932 44.196L48.932 50.988C48.932 51.444 48.62 51.516 48.356 51.156L43.244 43.932C43.028 43.62 42.764 43.476 42.38 43.476L38.564 43.476C37.988 43.476 37.724 43.788 37.988 44.196ZM69.38 43.476L56.948 43.476C56.372 43.476 56.156 43.86 56.468 44.34L56.66 44.652C56.78 44.868 56.828 45.012 56.828 45.228L56.828 56.34C56.828 56.796 57.092 57.06 57.548 57.06L60.668 57.06C61.124 57.06 61.388 56.796 61.388 56.34L61.388 52.932C61.388 52.62 61.556 52.452 61.868 52.452L69.404 52.452C70.1 52.452 70.892 51.78 70.964 50.844L70.964 45.06C70.964 44.028 70.412 43.476 69.38 43.476ZM66.356 46.26L66.356 49.668C66.356 49.98 66.188 50.148 65.876 50.148L61.868 50.148C61.556 50.148 61.388 49.98 61.388 49.668L61.388 46.26C61.388 45.948 61.556 45.78 61.868 45.78L65.876 45.78C66.188 45.78 66.356 45.948 66.356 46.26Z">
</path>
</g>
</svg>
