<svg xmlns="http://www.w3.org/2000/svg" xmlns:xlink="http://www.w3.org/1999/xlink" width="100" height="100" viewBox="0 0 100 100" fill="none">
<path d="M17 15.7357C17 13.9786 17.8355 12.2214 18.9496 10.7571C20.0636 9.29286 22.0132 9 23.6843 9L63.7898 9L83.8426 29.5L83.8426 84.2643C83.8426 86.0214 83.007 87.7785 81.893 88.95C80.7789 90.1214 78.8294 91 77.1583 91L23.6843 91C20.0636 91 17 88.0714 17 84.2643L17 15.7357Z"   fill="#C53427" >
</path>
<path d="M84 29.8306L70.6839 29.8306C67.0775 29.8306 64.0258 26.6032 64.0258 22.7891L64.0258 9L84 29.8306Z"   fill="#752424" >
</path>
<g >
<path     fill="#FFFFFF"  d="M23.132 44.196L23.42 44.652C23.54 44.868 23.588 45.012 23.588 45.228L23.588 56.34C23.588 56.796 23.852 57.06 24.308 57.06L26.948 57.06C27.404 57.06 27.668 56.796 27.668 56.34L27.668 51.54C27.668 51.06 28.028 50.964 28.22 51.42L30.068 55.596C30.236 55.956 30.5 56.148 30.908 56.148L33.404 56.148C33.812 56.148 34.076 55.956 34.244 55.596L36.188 51.18C36.38 50.724 36.74 50.82 36.74 51.3L36.74 56.34C36.74 56.796 37.004 57.06 37.46 57.06L40.076 57.06C40.532 57.06 40.796 56.796 40.796 56.34L40.796 44.196C40.796 43.74 40.532 43.476 40.076 43.476L36.5 43.476C36.092 43.476 35.828 43.668 35.66 44.028L32.588 51.252C32.42 51.66 32.108 51.66 31.94 51.252L28.772 44.028C28.604 43.668 28.34 43.476 27.932 43.476L23.708 43.476C23.132 43.476 22.868 43.788 23.132 44.196ZM57.908 43.476L44.876 43.476C44.3 43.476 44.084 43.86 44.396 44.34L44.588 44.652C44.708 44.868 44.756 45.012 44.756 45.228L44.756 56.34C44.756 56.796 45.02 57.06 45.476 57.06L57.74 57.06C58.676 57.06 59.348 56.388 59.348 55.452L59.348 44.916C59.348 43.98 58.844 43.476 57.908 43.476ZM54.932 46.26L54.932 54.276C54.932 54.588 54.764 54.756 54.452 54.756L49.892 54.756C49.58 54.756 49.412 54.588 49.412 54.276L49.412 46.26C49.412 45.948 49.58 45.78 49.892 45.78L54.452 45.78C54.764 45.78 54.932 45.948 54.932 46.26ZM75.812 43.476L63.38 43.476C62.804 43.476 62.588 43.86 62.9 44.34L63.092 44.652C63.212 44.868 63.26 45.012 63.26 45.228L63.26 56.34C63.26 56.796 63.524 57.06 63.98 57.06L67.1 57.06C67.556 57.06 67.82 56.796 67.82 56.34L67.82 52.932C67.82 52.62 67.988 52.452 68.3 52.452L75.836 52.452C76.532 52.452 77.324 51.78 77.396 50.844L77.396 45.06C77.396 44.028 76.844 43.476 75.812 43.476ZM72.788 46.26L72.788 49.668C72.788 49.98 72.62 50.148 72.308 50.148L68.3 50.148C67.988 50.148 67.82 49.98 67.82 49.668L67.82 46.26C67.82 45.948 67.988 45.78 68.3 45.78L72.308 45.78C72.62 45.78 72.788 45.948 72.788 46.26Z">
</path>
</g>
</svg>
