<svg xmlns="http://www.w3.org/2000/svg" xmlns:xlink="http://www.w3.org/1999/xlink" width="100" height="100" viewBox="0 0 100 100" fill="none">
<path d="M17 15.7357C17 13.9786 17.8355 12.2214 18.9496 10.7571C20.0636 9.29286 22.0132 9 23.6843 9L63.7898 9L83.8426 29.5L83.8426 84.2643C83.8426 86.0214 83.007 87.7785 81.893 88.95C80.7789 90.1214 78.8294 91 77.1583 91L23.6843 91C20.0636 91 17 88.0714 17 84.2643L17 15.7357Z"   fill="#739626" >
</path>
<path d="M84 29.8306L70.6839 29.8306C67.0775 29.8306 64.0259 26.6032 64.0259 22.7891L64.0259 9L84 29.8306Z"   fill="#A5D63F" >
</path>
<g >
<path     fill="#FFFFFF"  d="M24.632 43.696L24.92 44.152C25.04 44.368 25.088 44.512 25.088 44.728L25.088 55.84C25.088 56.296 25.352 56.56 25.808 56.56L28.472 56.56C28.928 56.56 29.192 56.296 29.192 55.84L29.192 49.288C29.192 48.832 29.504 48.712 29.768 49.096L34.64 56.104C34.856 56.44 35.12 56.56 35.504 56.56L38.816 56.56C39.272 56.56 39.536 56.296 39.536 55.84L39.536 43.696C39.536 43.24 39.272 42.976 38.816 42.976L36.296 42.976C35.84 42.976 35.576 43.24 35.576 43.696L35.576 50.488C35.576 50.944 35.264 51.016 35 50.656L29.888 43.432C29.672 43.12 29.408 42.976 29.024 42.976L25.208 42.976C24.632 42.976 24.368 43.288 24.632 43.696ZM56.408 42.976L44.792 42.976C43.856 42.976 43.352 43.48 43.352 44.416L43.352 54.952C43.352 56.032 44.144 56.56 44.984 56.56L56.408 56.56C57.344 56.56 57.848 56.056 57.848 55.12L57.848 49.912C57.848 49.456 57.584 49.192 57.128 49.192L52.664 49.192C52.064 49.192 51.872 49.6 52.232 50.08L53.12 51.232C53.264 51.424 53.336 51.592 53.336 51.832L53.336 53.776C53.336 54.088 53.168 54.256 52.856 54.256L48.32 54.256C48.008 54.256 47.84 54.088 47.84 53.776L47.84 45.76C47.84 45.448 48.008 45.28 48.32 45.28L52.856 45.28C53.168 45.28 53.336 45.448 53.336 45.76L53.336 46.168C53.336 46.624 53.6 46.888 54.056 46.888L57.128 46.888C57.584 46.888 57.848 46.624 57.848 46.168L57.848 44.416C57.848 43.48 57.344 42.976 56.408 42.976ZM62.408 43.84L66.32 49.312C66.488 49.528 66.488 49.744 66.32 49.984L62.192 55.672C61.856 56.152 62.024 56.56 62.624 56.56L65.6 56.56C65.984 56.56 66.248 56.44 66.464 56.104L68.672 52.912C68.864 52.624 69.152 52.624 69.344 52.912L71.36 56.08C71.576 56.392 71.84 56.56 72.224 56.56L75.2 56.56C75.8 56.56 75.992 56.176 75.632 55.672L71.408 49.984C71.24 49.768 71.264 49.552 71.432 49.312L75.536 43.864C75.896 43.384 75.704 42.976 75.104 42.976L71.024 42.976C70.448 42.976 70.232 43.336 70.568 43.84C70.688 44.032 70.688 44.224 70.544 44.464L69.272 46.384C69.08 46.696 68.792 46.696 68.6 46.384L66.608 43.432C66.392 43.096 66.128 42.976 65.744 42.976L62.864 42.976C62.264 42.976 62.072 43.36 62.408 43.84Z">
</path>
</g>
</svg>
