<svg xmlns="http://www.w3.org/2000/svg" xmlns:xlink="http://www.w3.org/1999/xlink" width="100" height="100" viewBox="0 0 100 100" fill="none">
<path d="M17 15.7357C17 13.9786 17.8355 12.2214 18.9496 10.7571C20.0636 9.29286 22.0132 9 23.6843 9L63.7898 9L83.8426 29.5L83.8426 84.2643C83.8426 86.0214 83.007 87.7785 81.893 88.95C80.7789 90.1214 78.8294 91 77.1583 91L23.6843 91C20.0636 91 17 88.0714 17 84.2643L17 15.7357Z"   fill="#FF8D1A" >
</path>
<path d="M84 29.8306L70.6839 29.8306C67.0775 29.8306 64.0258 26.6032 64.0258 22.7891L64.0258 9L84 29.8306Z"   fill="#FFC300" >
</path>
<g >
<path     fill="#FFFFFF"  d="M37.496 43.476L25.064 43.476C24.488 43.476 24.272 43.86 24.584 44.34L24.776 44.652C24.896 44.868 24.944 45.012 24.944 45.228L24.944 56.34C24.944 56.796 25.208 57.06 25.664 57.06L28.784 57.06C29.24 57.06 29.504 56.796 29.504 56.34L29.504 52.932C29.504 52.62 29.672 52.452 29.984 52.452L37.52 52.452C38.216 52.452 39.008 51.78 39.08 50.844L39.08 45.06C39.08 44.028 38.528 43.476 37.496 43.476ZM34.472 46.26L34.472 49.668C34.472 49.98 34.304 50.148 33.992 50.148L29.984 50.148C29.672 50.148 29.504 49.98 29.504 49.668L29.504 46.26C29.504 45.948 29.672 45.78 29.984 45.78L33.992 45.78C34.304 45.78 34.472 45.948 34.472 46.26ZM56.048 43.476L43.016 43.476C42.44 43.476 42.224 43.86 42.536 44.34L42.728 44.652C42.848 44.868 42.896 45.012 42.896 45.228L42.896 56.34C42.896 56.796 43.16 57.06 43.616 57.06L55.88 57.06C56.816 57.06 57.488 56.388 57.488 55.452L57.488 44.916C57.488 43.98 56.984 43.476 56.048 43.476ZM53.072 46.26L53.072 54.276C53.072 54.588 52.904 54.756 52.592 54.756L48.032 54.756C47.72 54.756 47.552 54.588 47.552 54.276L47.552 46.26C47.552 45.948 47.72 45.78 48.032 45.78L52.592 45.78C52.904 45.78 53.072 45.948 53.072 46.26ZM74.576 43.476L61.544 43.476C60.968 43.476 60.752 43.86 61.064 44.34L61.256 44.652C61.376 44.868 61.424 45.012 61.424 45.228L61.424 56.34C61.424 56.796 61.688 57.06 62.144 57.06L74.432 57.06C75.368 57.06 76.016 56.388 76.016 55.452L76.016 51.396C76.016 51.012 75.872 50.724 75.584 50.508L75.248 50.244C74.984 50.028 74.984 49.764 75.248 49.572L75.584 49.332C75.896 49.116 76.016 48.828 76.016 48.444L76.016 44.916C76.016 43.98 75.512 43.476 74.576 43.476ZM71.48 46.26L71.48 48.276C71.48 48.588 71.312 48.756 71 48.756L66.488 48.756C66.176 48.756 66.008 48.588 66.008 48.276L66.008 46.26C66.008 45.948 66.176 45.78 66.488 45.78L71 45.78C71.312 45.78 71.48 45.948 71.48 46.26ZM71.48 51.54L71.48 54.276C71.48 54.588 71.312 54.756 71 54.756L66.488 54.756C66.176 54.756 66.008 54.588 66.008 54.276L66.008 51.54C66.008 51.228 66.176 51.06 66.488 51.06L71 51.06C71.312 51.06 71.48 51.228 71.48 51.54Z">
</path>
</g>
</svg>
