<svg xmlns="http://www.w3.org/2000/svg" xmlns:xlink="http://www.w3.org/1999/xlink" width="100" height="100" viewBox="0 0 100 100" fill="none">
<path d="M17 15.7357C17 13.9786 17.8355 12.2214 18.9496 10.7571C20.0636 9.29286 22.0132 9 23.6843 9L63.7898 9L83.8426 29.5L83.8426 84.2643C83.8426 86.0214 83.007 87.7785 81.893 88.95C80.7789 90.1214 78.8294 91 77.1583 91L23.6843 91C20.0636 91 17 88.0714 17 84.2643L17 15.7357Z"   fill="#43CF7C" >
</path>
<path d="M84 29.8306L70.6839 29.8306C67.0775 29.8306 64.0259 26.6032 64.0259 22.7891L64.0259 9L84 29.8306Z"   fill="#8BFCB8" >
</path>
<g >
<path     fill="#FFFFFF"  d="M37.996 43.476L25.564 43.476C24.988 43.476 24.772 43.86 25.084 44.34L25.276 44.652C25.396 44.868 25.444 45.012 25.444 45.228L25.444 56.34C25.444 56.796 25.708 57.06 26.164 57.06L29.284 57.06C29.74 57.06 30.004 56.796 30.004 56.34L30.004 52.932C30.004 52.62 30.172 52.452 30.484 52.452L38.02 52.452C38.716 52.452 39.508 51.78 39.58 50.844L39.58 45.06C39.58 44.028 39.028 43.476 37.996 43.476ZM34.972 46.26L34.972 49.668C34.972 49.98 34.804 50.148 34.492 50.148L30.484 50.148C30.172 50.148 30.004 49.98 30.004 49.668L30.004 46.26C30.004 45.948 30.172 45.78 30.484 45.78L34.492 45.78C34.804 45.78 34.972 45.948 34.972 46.26ZM42.94 44.196L43.228 44.652C43.348 44.868 43.396 45.012 43.396 45.228L43.396 56.34C43.396 56.796 43.66 57.06 44.116 57.06L47.212 57.06C47.668 57.06 47.932 56.796 47.932 56.34L47.932 53.244C47.932 52.836 48.22 52.716 48.532 53.004L52.54 56.7C52.828 56.964 53.068 57.06 53.428 57.06L57.076 57.06C57.748 57.06 57.916 56.604 57.412 56.172L50.98 50.7C50.74 50.508 50.74 50.244 50.956 50.028L56.548 44.364C57.004 43.908 56.812 43.476 56.188 43.476L52.684 43.476C52.324 43.476 52.06 43.596 51.796 43.836L48.532 47.028C48.22 47.34 47.932 47.196 47.932 46.788L47.932 44.196C47.932 43.74 47.668 43.476 47.212 43.476L43.516 43.476C42.94 43.476 42.676 43.788 42.94 44.196ZM63.316 44.196L63.58 44.628C63.7 44.82 63.748 45.012 63.676 45.252L60.724 56.244C60.604 56.724 60.844 57.06 61.348 57.06L63.796 57.06C64.204 57.06 64.468 56.868 64.588 56.46L65.38 53.772C65.452 53.484 65.644 53.364 65.908 53.364L70.828 53.364C71.116 53.364 71.308 53.484 71.38 53.772L72.1 56.436C72.22 56.868 72.484 57.06 72.892 57.06L75.556 57.06C76.06 57.06 76.324 56.724 76.18 56.244L72.82 44.076C72.7 43.644 72.436 43.476 72.028 43.476L63.892 43.476C63.316 43.476 63.052 43.788 63.316 44.196ZM69.412 46.188L70.588 50.532C70.684 50.844 70.516 51.06 70.18 51.06L66.7 51.06C66.364 51.06 66.196 50.82 66.292 50.508L67.564 46.188C67.636 45.9 67.828 45.78 68.092 45.78L68.86 45.78C69.148 45.78 69.34 45.9 69.412 46.188Z">
</path>
</g>
</svg>
