<svg xmlns="http://www.w3.org/2000/svg" xmlns:xlink="http://www.w3.org/1999/xlink" width="100" height="100" viewBox="0 0 100 100" fill="none">
<path d="M17 15.7357C17 13.9786 17.8355 12.2214 18.9496 10.7571C20.0636 9.29286 22.0132 9 23.6843 9L63.7898 9L83.8426 29.5L83.8426 84.2643C83.8426 86.0214 83.007 87.7785 81.893 88.95C80.7789 90.1214 78.8294 91 77.1583 91L23.6843 91C20.0636 91 17 88.0714 17 84.2643L17 15.7357Z"   fill="#529D94" >
</path>
<path d="M84 29.8306L70.6839 29.8306C67.0775 29.8306 64.0258 26.6032 64.0258 22.7891L64.0258 9L84 29.8306Z"   fill="#33666C" >
</path>
<g >
<path     fill="#FFFFFF"  d="M34.468 56.364L34.492 46.284C34.492 45.972 34.66 45.804 34.972 45.804L38.692 45.804C39.148 45.804 39.412 45.54 39.412 45.084L39.412 44.22C39.412 43.764 39.148 43.5 38.692 43.5L25.492 43.5C25.036 43.5 24.772 43.764 24.772 44.22L24.772 45.084C24.772 45.54 25.036 45.804 25.492 45.804L29.404 45.804C29.716 45.804 29.884 45.972 29.884 46.284L29.86 56.364C29.86 56.82 30.124 57.084 30.58 57.084L33.748 57.084C34.204 57.084 34.468 56.844 34.468 56.364ZM42.46 45.06L42.46 55.452C42.46 56.532 43.252 57.06 44.092 57.06L55.3 57.06C56.332 57.06 56.884 56.484 56.884 55.476L56.884 45.084C56.884 44.1 56.068 43.476 55.324 43.476L44.044 43.476C43.012 43.476 42.46 44.052 42.46 45.06ZM52.372 46.26L52.372 54.276C52.372 54.588 52.204 54.756 51.892 54.756L47.428 54.756C47.116 54.756 46.948 54.588 46.948 54.276L46.948 46.26C46.948 45.948 47.116 45.78 47.428 45.78L51.892 45.78C52.204 45.78 52.372 45.948 52.372 46.26ZM73.276 43.476L60.844 43.476C60.268 43.476 60.052 43.86 60.364 44.34L60.556 44.652C60.676 44.868 60.724 45.012 60.724 45.228L60.724 56.34C60.724 56.796 60.988 57.06 61.444 57.06L64.564 57.06C65.02 57.06 65.284 56.796 65.284 56.34L65.284 52.932C65.284 52.62 65.452 52.452 65.764 52.452L73.3 52.452C73.996 52.452 74.788 51.78 74.86 50.844L74.86 45.06C74.86 44.028 74.308 43.476 73.276 43.476ZM70.252 46.26L70.252 49.668C70.252 49.98 70.084 50.148 69.772 50.148L65.764 50.148C65.452 50.148 65.284 49.98 65.284 49.668L65.284 46.26C65.284 45.948 65.452 45.78 65.764 45.78L69.772 45.78C70.084 45.78 70.252 45.948 70.252 46.26Z">
</path>
</g>
</svg>
