<svg xmlns="http://www.w3.org/2000/svg" xmlns:xlink="http://www.w3.org/1999/xlink" width="100" height="100" viewBox="0 0 100 100" fill="none">
<path d="M17 15.7357C17 13.9786 17.8355 12.2214 18.9496 10.7571C20.0636 9.29286 22.0132 9 23.6843 9L63.7898 9L83.8426 29.5L83.8426 84.2643C83.8426 86.0214 83.007 87.7785 81.893 88.95C80.7789 90.1214 78.8294 91 77.1583 91L23.6843 91C20.0636 91 17 88.0714 17 84.2643L17 15.7357Z"   fill="#739626" >
</path>
<path d="M84 29.8306L70.6839 29.8306C67.0775 29.8306 64.0258 26.6032 64.0258 22.7891L64.0258 9L84 29.8306Z"   fill="#A5D63F" >
</path>
<g >
<path     fill="#FFFFFF"  d="M35.984 72.74L38.266 75.932C38.364 76.058 38.364 76.184 38.266 76.324L35.858 79.642C35.662 79.922 35.76 80.16 36.11 80.16L37.846 80.16C38.07 80.16 38.224 80.09 38.35 79.894L39.638 78.032C39.75 77.864 39.918 77.864 40.03 78.032L41.206 79.88C41.332 80.062 41.486 80.16 41.71 80.16L43.446 80.16C43.796 80.16 43.908 79.936 43.698 79.642L41.234 76.324C41.136 76.198 41.15 76.072 41.248 75.932L43.642 72.754C43.852 72.474 43.74 72.236 43.39 72.236L41.01 72.236C40.674 72.236 40.548 72.446 40.744 72.74C40.814 72.852 40.814 72.964 40.73 73.104L39.988 74.224C39.876 74.406 39.708 74.406 39.596 74.224L38.434 72.502C38.308 72.306 38.154 72.236 37.93 72.236L36.25 72.236C35.9 72.236 35.788 72.46 35.984 72.74ZM52.084 79.81L54.45 72.712C54.548 72.432 54.408 72.236 54.1 72.236L52.28 72.236C52.042 72.236 51.888 72.348 51.804 72.572L50.18 77.206C50.096 77.458 49.9 77.458 49.816 77.206L48.276 72.586C48.206 72.362 48.038 72.236 47.8 72.236L45.868 72.236C45.532 72.236 45.406 72.46 45.588 72.74L45.714 72.936C45.784 73.034 45.826 73.132 45.868 73.244L48.094 79.824C48.164 80.048 48.332 80.16 48.57 80.16L51.608 80.16C51.846 80.16 52.014 80.034 52.084 79.81ZM64.082 72.236L57.306 72.236C56.76 72.236 56.466 72.53 56.466 73.076L56.466 79.222C56.466 79.852 56.928 80.16 57.418 80.16L64.082 80.16C64.628 80.16 64.922 79.866 64.922 79.32L64.922 76.282C64.922 76.016 64.768 75.862 64.502 75.862L61.898 75.862C61.548 75.862 61.436 76.1 61.646 76.38L62.164 77.052C62.248 77.164 62.29 77.262 62.29 77.402L62.29 78.536C62.29 78.718 62.192 78.816 62.01 78.816L59.364 78.816C59.182 78.816 59.084 78.718 59.084 78.536L59.084 73.86C59.084 73.678 59.182 73.58 59.364 73.58L62.01 73.58C62.192 73.58 62.29 73.678 62.29 73.86L62.29 74.098C62.29 74.364 62.444 74.518 62.71 74.518L64.502 74.518C64.768 74.518 64.922 74.364 64.922 74.098L64.922 73.076C64.922 72.53 64.628 72.236 64.082 72.236Z">
</path>
</g>
<path   fill="rgba(255, 255, 255, 1)"  d="M29.75 62.8931L29.75 31L30.25 31L30.25 62.8931L29.75 62.8931ZM30.25 62.8931C30.25 63.0312 30.1381 63.1431 30 63.1431C29.8619 63.1431 29.75 63.0312 29.75 62.8931C29.75 62.755 29.8619 62.6431 30 62.6431C30.1381 62.6431 30.25 62.755 30.25 62.8931ZM30.1766 30.8234L30.1766 30.8234C30.2741 30.9209 30.2741 31.0791 30.1766 31.1766L28.4106 32.9426C28.3131 33.0401 28.1549 33.0401 28.0574 32.9426L28.0574 32.9426C27.9599 32.8451 27.9599 32.6869 28.0574 32.5894L29.8234 30.8234C29.9209 30.7259 30.0791 30.7259 30.1766 30.8234ZM29.8234 30.8234L29.8234 30.8234C29.9209 30.7259 30.0791 30.7259 30.1766 30.8234L31.9426 32.5894C32.0401 32.6869 32.0401 32.8451 31.9426 32.9426L31.9426 32.9426C31.8451 33.0401 31.6869 33.0401 31.5894 32.9426L29.8234 31.1766C29.7259 31.0791 29.7259 30.9209 29.8234 30.8234Z">
</path>
<path   fill="rgba(255, 255, 255, 1)"  d="M30 62.6431L70.1622 62.6431L70.1622 63.1431L30 63.1431L30 62.6431ZM30 63.1431C29.8619 63.1431 29.75 63.0312 29.75 62.8931C29.75 62.7551 29.8619 62.6431 30 62.6431C30.1381 62.6431 30.25 62.7551 30.25 62.8931C30.25 63.0312 30.1381 63.1431 30 63.1431ZM70.3388 63.0697L70.3388 63.0697C70.2413 63.1673 70.0831 63.1673 69.9856 63.0697L68.2196 61.3037C68.1221 61.2062 68.1221 61.0481 68.2196 60.9505L68.2196 60.9505C68.3171 60.853 68.4753 60.853 68.5728 60.9505L70.3388 62.7165C70.4363 62.8141 70.4363 62.9722 70.3388 63.0697ZM70.3388 62.7165L70.3388 62.7165C70.4363 62.8141 70.4363 62.9722 70.3388 63.0697L68.5728 64.8357C68.4753 64.9333 68.3171 64.9333 68.2196 64.8357L68.2196 64.8357C68.1221 64.7382 68.1221 64.5801 68.2196 64.4825L69.9856 62.7165C70.0831 62.619 70.2413 62.619 70.3388 62.7165Z">
</path>
<path   fill="rgba(255, 255, 255, 1)"  d="M37.9312 49.1356L40.0692 54.5993L40.0692 54.5993C40.6902 56.1864 42.8847 56.3192 43.6926 54.8187L44.5731 55.2928L43.6926 54.8187L52.4825 38.4946L52.4825 38.4946C53.837 35.9792 57.3158 35.6537 59.1134 37.8743L59.1134 37.8743L64.7772 44.8708L63.2228 46.1292L57.5589 39.1327L58.3361 38.5035L57.5589 39.1327C56.6601 38.0224 54.9207 38.1851 54.2435 39.4428L53.363 38.9688L54.2435 39.4428L45.4536 55.7669L45.4536 55.7669C43.8376 58.768 39.4488 58.5022 38.2067 55.3281L39.138 54.9637L38.2067 55.3281L36.0688 49.8644L37.9312 49.1356ZM37 50.5C36.4477 50.5 36 50.0523 36 49.5C36 48.9477 36.4477 48.5 37 48.5C37.5523 48.5 38 48.9477 38 49.5C38 50.0523 37.5523 50.5 37 50.5ZM64 46.5C63.4477 46.5 63 46.0523 63 45.5C63 44.9477 63.4477 44.5 64 44.5C64.5523 44.5 65 44.9477 65 45.5C65 46.0523 64.5523 46.5 64 46.5Z">
</path>
</svg>
